<svg id="Layer_1" data-name="Layer 1" xmlns="http://www.w3.org/2000/svg" viewBox="0 0 85.16 53.51"><defs><style>.cls-1{fill:#00aeef;}.cls-2{fill:#2e3192;}</style></defs><text x="-7.15" y="-25.07"/><polygon class="cls-1" points="80.01 9.5 23.43 9.5 28.58 0 85.16 0 80.01 9.5"/><polygon class="cls-1" points="37.53 45.61 26.71 45.61 46.27 9.5 57.08 9.5 37.53 45.61"/><path class="cls-1" d="M40.41,78.58l4.27-7.9H33.86c-2.44.21-5.09.32-7.94.3-2.26,0-2.4-7.7-.39-11.41H17.05L7.15,77.85Z" transform="translate(-7.15 -25.07)"/><path class="cls-2" d="M53.42,34.57H64.24c5.14.24,6.89,4.53,4.29,9.36A20,20,0,0,1,56.07,53.1C59.33,54.37,60,58,57.7,62c-2.52,4.4-8.11,8.2-13,8.69H33.86Z" transform="translate(-7.15 -25.07)"/><path class="cls-1" d="M33.86,70.68" transform="translate(-7.15 -25.07)"/></svg>