<svg xmlns="http://www.w3.org/2000/svg" viewBox="0 0 67.82 84.72"><defs><style>.cls-1{fill:#fff;stroke:#231f20;stroke-miterlimit:10;}</style></defs><g id="Layer_2" data-name="Layer 2"><g id="Layer_1-2" data-name="Layer 1"><path class="cls-1" d="M66.62,84.22c2.5-24.23-2.18-42-6.2-52.64C53.79,14,42.77-.85,38.62.6c-2.52.88-1,7.24-6.25,12.06-3,2.8-5.89,2.81-9.58,4C10.67,20.57.87,33.52.53,44.89c-.07,2.36-.22,7,2.77,9.53C9,59.17,22,52.49,24.39,50.3L38.68,37a93.08,93.08,0,0,1-5.19,25.4A92.89,92.89,0,0,1,22.35,84.22Z"/></g></g></svg>