<svg id="Layer_1" data-name="Layer 1" xmlns="http://www.w3.org/2000/svg" viewBox="0 0 120 120"><defs><style>.cls-1{fill:#fff;stroke:#231f20;stroke-miterlimit:10;}</style></defs><rect class="cls-1" x="39.39" y="95.52" width="48.37" height="8.69"/><path class="cls-1" d="M39.39,86.83C28,84.74,20.92,74.86,22.18,66.06c1.52-10.65,14.74-15.88,23.5-14.27,11.4,2.11,21.09,16.9,17.9,35"/><path class="cls-1" d="M88,86.83c11.38-2,18.52-11.92,17.21-20.77C103.63,55.51,90.64,50.4,82.05,51.9c-11.38,2-21.19,16.67-18.26,34.93"/><rect class="cls-1" x="39.39" y="86.83" width="48.37" height="8.69"/><line class="cls-1" x1="63.58" y1="86.83" x2="63.58" y2="37.8"/><line class="cls-1" x1="60.86" y1="41.64" x2="66.48" y2="41.64"/><path class="cls-1" d="M63.58,86.83c-.11-6.09-.39-12.58-.9-19.41-.48-6.25-1.1-12.18-1.82-17.75a4.18,4.18,0,0,1,2.72-1.19,4.13,4.13,0,0,1,2.9,1.19c-.93,5.42-1.75,11.47-2.28,18.08C63.65,74.69,63.49,81.09,63.58,86.83Z"/></svg>