<svg id="Layer_1" data-name="Layer 1" xmlns="http://www.w3.org/2000/svg" viewBox="0 0 120 120"><defs><style>.cls-1{fill:#231f20;stroke:#fff;stroke-miterlimit:10;}</style></defs><rect class="cls-1" x="38.97" y="107.68" width="45.69" height="8.69"/><path class="cls-1" d="M84.56,107.68c2.5-24.23-2.18-42-6.2-52.64-6.63-17.61-17.65-32.43-21.8-31-2.52.88-1,7.24-6.25,12.06-3.05,2.8-5.89,2.81-9.58,4C28.61,44,18.81,57,18.46,68.35c-.07,2.36-.21,7.06,2.77,9.53C27,82.64,40,76,42.33,73.76L56.61,60.5a93,93,0,0,1-5.18,25.4,92.89,92.89,0,0,1-11.14,21.78Z"/></svg>